<mxfile host="app.diagrams.net" modified="2021-01-29T00:13:12.041Z" agent="5.0 (Windows NT 10.0; Win64; x64) AppleWebKit/537.36 (KHTML, like Gecko) Chrome/87.0.4280.141 Safari/537.36" etag="Wkm9e7jGrv7oKoZUxS4o" version="14.2.7" type="github">
  <diagram name="Page-1" id="9f46799a-70d6-7492-0946-bef42562c5a5">
    <mxGraphModel dx="1673" dy="1746" grid="1" gridSize="10" guides="1" tooltips="1" connect="1" arrows="1" fold="1" page="1" pageScale="1" pageWidth="1100" pageHeight="850" math="0" shadow="0">
      <root>
        <mxCell id="0" />
        <mxCell id="1" parent="0" />
        <mxCell id="IH1UawKQzV-C3lGUAN1--19" style="edgeStyle=orthogonalEdgeStyle;curved=0;rounded=1;sketch=0;orthogonalLoop=1;jettySize=auto;html=1;" parent="1" source="IH1UawKQzV-C3lGUAN1--4" target="IH1UawKQzV-C3lGUAN1--20" edge="1">
          <mxGeometry relative="1" as="geometry">
            <mxPoint x="240" y="-430" as="targetPoint" />
          </mxGeometry>
        </mxCell>
        <mxCell id="IH1UawKQzV-C3lGUAN1--23" value="YES" style="edgeLabel;html=1;align=center;verticalAlign=middle;resizable=0;points=[];fontStyle=1;fontSize=13;" parent="IH1UawKQzV-C3lGUAN1--19" vertex="1" connectable="0">
          <mxGeometry x="-0.8133" relative="1" as="geometry">
            <mxPoint as="offset" />
          </mxGeometry>
        </mxCell>
        <mxCell id="s6dcKbaxDKtYMl7xi46n-2" style="edgeStyle=orthogonalEdgeStyle;rounded=0;orthogonalLoop=1;jettySize=auto;html=1;entryX=0;entryY=0.5;entryDx=0;entryDy=0;" edge="1" parent="1" source="IH1UawKQzV-C3lGUAN1--4" target="s6dcKbaxDKtYMl7xi46n-1">
          <mxGeometry relative="1" as="geometry" />
        </mxCell>
        <mxCell id="s6dcKbaxDKtYMl7xi46n-4" value="NO" style="edgeLabel;html=1;align=center;verticalAlign=middle;resizable=0;points=[];fontStyle=1;fontSize=13;" vertex="1" connectable="0" parent="s6dcKbaxDKtYMl7xi46n-2">
          <mxGeometry x="-0.68" relative="1" as="geometry">
            <mxPoint as="offset" />
          </mxGeometry>
        </mxCell>
        <mxCell id="IH1UawKQzV-C3lGUAN1--4" value="카운트 테이블 데이터 유무 확인" style="rhombus;whiteSpace=wrap;html=1;rounded=0;sketch=0;" parent="1" vertex="1">
          <mxGeometry x="555" y="-580" width="240" height="110" as="geometry" />
        </mxCell>
        <mxCell id="IH1UawKQzV-C3lGUAN1--13" style="edgeStyle=orthogonalEdgeStyle;curved=0;rounded=1;sketch=0;orthogonalLoop=1;jettySize=auto;html=1;" parent="1" target="IH1UawKQzV-C3lGUAN1--12" edge="1">
          <mxGeometry relative="1" as="geometry">
            <mxPoint x="675" y="-770" as="sourcePoint" />
          </mxGeometry>
        </mxCell>
        <mxCell id="IH1UawKQzV-C3lGUAN1--18" style="edgeStyle=orthogonalEdgeStyle;curved=0;rounded=1;sketch=0;orthogonalLoop=1;jettySize=auto;html=1;" parent="1" source="IH1UawKQzV-C3lGUAN1--12" target="IH1UawKQzV-C3lGUAN1--4" edge="1">
          <mxGeometry relative="1" as="geometry" />
        </mxCell>
        <mxCell id="IH1UawKQzV-C3lGUAN1--12" value="스케쥴러 실행" style="rounded=0;whiteSpace=wrap;html=1;sketch=0;" parent="1" vertex="1">
          <mxGeometry x="520" y="-710" width="310" height="60" as="geometry" />
        </mxCell>
        <mxCell id="IH1UawKQzV-C3lGUAN1--16" style="edgeStyle=orthogonalEdgeStyle;curved=0;rounded=1;sketch=0;orthogonalLoop=1;jettySize=auto;html=1;exitX=0;exitY=0.5;exitDx=0;exitDy=0;" parent="1" source="s6dcKbaxDKtYMl7xi46n-13" edge="1">
          <mxGeometry relative="1" as="geometry">
            <mxPoint x="830" y="-800" as="targetPoint" />
            <mxPoint x="944.9999999999995" y="-800" as="sourcePoint" />
          </mxGeometry>
        </mxCell>
        <mxCell id="IH1UawKQzV-C3lGUAN1--52" style="edgeStyle=orthogonalEdgeStyle;curved=0;rounded=1;sketch=0;orthogonalLoop=1;jettySize=auto;html=1;" parent="1" source="IH1UawKQzV-C3lGUAN1--17" target="IH1UawKQzV-C3lGUAN1--51" edge="1">
          <mxGeometry relative="1" as="geometry" />
        </mxCell>
        <mxCell id="IH1UawKQzV-C3lGUAN1--17" value="회원 목록 셀렉트" style="rounded=1;whiteSpace=wrap;html=1;sketch=0;" parent="1" vertex="1">
          <mxGeometry x="1200" y="-10" width="240" height="60" as="geometry" />
        </mxCell>
        <mxCell id="IH1UawKQzV-C3lGUAN1--78" style="edgeStyle=orthogonalEdgeStyle;curved=0;rounded=1;sketch=0;orthogonalLoop=1;jettySize=auto;html=1;entryX=0;entryY=0.5;entryDx=0;entryDy=0;" parent="1" source="IH1UawKQzV-C3lGUAN1--20" target="s6dcKbaxDKtYMl7xi46n-8" edge="1">
          <mxGeometry relative="1" as="geometry">
            <mxPoint x="390" y="-130" as="targetPoint" />
          </mxGeometry>
        </mxCell>
        <mxCell id="IH1UawKQzV-C3lGUAN1--79" value="N" style="edgeLabel;html=1;align=center;verticalAlign=middle;resizable=0;points=[];fontStyle=1;fontSize=13;" parent="IH1UawKQzV-C3lGUAN1--78" vertex="1" connectable="0">
          <mxGeometry x="-0.5956" y="-1" relative="1" as="geometry">
            <mxPoint x="12.35" y="-1" as="offset" />
          </mxGeometry>
        </mxCell>
        <mxCell id="s6dcKbaxDKtYMl7xi46n-27" style="edgeStyle=orthogonalEdgeStyle;rounded=0;orthogonalLoop=1;jettySize=auto;html=1;entryX=1;entryY=0.5;entryDx=0;entryDy=0;startArrow=none;startFill=0;endArrow=classic;endFill=1;fontSize=13;" edge="1" parent="1" source="IH1UawKQzV-C3lGUAN1--20" target="s6dcKbaxDKtYMl7xi46n-17">
          <mxGeometry relative="1" as="geometry" />
        </mxCell>
        <mxCell id="s6dcKbaxDKtYMl7xi46n-28" value="Y" style="edgeLabel;html=1;align=center;verticalAlign=middle;resizable=0;points=[];fontSize=13;fontStyle=1" vertex="1" connectable="0" parent="s6dcKbaxDKtYMl7xi46n-27">
          <mxGeometry x="-0.7758" y="1" relative="1" as="geometry">
            <mxPoint x="-8.24" y="-1" as="offset" />
          </mxGeometry>
        </mxCell>
        <mxCell id="IH1UawKQzV-C3lGUAN1--20" value="STATUS(Y, N) 확인" style="rhombus;whiteSpace=wrap;html=1;rounded=0;sketch=0;" parent="1" vertex="1">
          <mxGeometry x="140" y="-170" width="240" height="110" as="geometry" />
        </mxCell>
        <mxCell id="IH1UawKQzV-C3lGUAN1--65" style="edgeStyle=orthogonalEdgeStyle;curved=0;rounded=1;sketch=0;orthogonalLoop=1;jettySize=auto;html=1;entryX=0;entryY=0.5;entryDx=0;entryDy=0;" parent="1" source="IH1UawKQzV-C3lGUAN1--43" target="IH1UawKQzV-C3lGUAN1--47" edge="1">
          <mxGeometry relative="1" as="geometry" />
        </mxCell>
        <mxCell id="IH1UawKQzV-C3lGUAN1--43" value="카운트(SEQ) 증가" style="rounded=1;whiteSpace=wrap;html=1;sketch=0;" parent="1" vertex="1">
          <mxGeometry x="800" y="-145" width="240" height="60" as="geometry" />
        </mxCell>
        <mxCell id="IH1UawKQzV-C3lGUAN1--66" style="edgeStyle=orthogonalEdgeStyle;curved=0;rounded=1;sketch=0;orthogonalLoop=1;jettySize=auto;html=1;entryX=0.5;entryY=0;entryDx=0;entryDy=0;" parent="1" source="IH1UawKQzV-C3lGUAN1--47" target="IH1UawKQzV-C3lGUAN1--17" edge="1">
          <mxGeometry relative="1" as="geometry">
            <Array as="points">
              <mxPoint x="1320" y="-130" />
              <mxPoint x="1320" y="-130" />
            </Array>
          </mxGeometry>
        </mxCell>
        <mxCell id="IH1UawKQzV-C3lGUAN1--47" value="통계 테이블 데이터 초기화" style="rounded=1;whiteSpace=wrap;html=1;sketch=0;" parent="1" vertex="1">
          <mxGeometry x="1200" y="-145" width="240" height="60" as="geometry" />
        </mxCell>
        <mxCell id="s6dcKbaxDKtYMl7xi46n-20" style="edgeStyle=orthogonalEdgeStyle;rounded=0;orthogonalLoop=1;jettySize=auto;html=1;entryX=1;entryY=0.5;entryDx=0;entryDy=0;startArrow=none;startFill=0;endArrow=classic;endFill=1;fontSize=13;" edge="1" parent="1" source="IH1UawKQzV-C3lGUAN1--48" target="s6dcKbaxDKtYMl7xi46n-18">
          <mxGeometry relative="1" as="geometry" />
        </mxCell>
        <mxCell id="IH1UawKQzV-C3lGUAN1--48" value="카운트 테이블 상태 업데이트" style="rounded=1;whiteSpace=wrap;html=1;sketch=0;" parent="1" vertex="1">
          <mxGeometry x="800" y="520" width="240" height="60" as="geometry" />
        </mxCell>
        <mxCell id="IH1UawKQzV-C3lGUAN1--54" style="edgeStyle=orthogonalEdgeStyle;curved=0;rounded=1;sketch=0;orthogonalLoop=1;jettySize=auto;html=1;entryX=0.5;entryY=0;entryDx=0;entryDy=0;" parent="1" source="IH1UawKQzV-C3lGUAN1--50" target="IH1UawKQzV-C3lGUAN1--58" edge="1">
          <mxGeometry relative="1" as="geometry">
            <mxPoint x="725" y="-65" as="targetPoint" />
          </mxGeometry>
        </mxCell>
        <mxCell id="IH1UawKQzV-C3lGUAN1--50" value="통계 테이블 인서트&lt;br&gt;(인서트 행 개수 반환)" style="rounded=1;whiteSpace=wrap;html=1;sketch=0;" parent="1" vertex="1">
          <mxGeometry x="1200" y="375" width="240" height="60" as="geometry" />
        </mxCell>
        <mxCell id="IH1UawKQzV-C3lGUAN1--53" style="edgeStyle=orthogonalEdgeStyle;curved=0;rounded=1;sketch=0;orthogonalLoop=1;jettySize=auto;html=1;" parent="1" source="IH1UawKQzV-C3lGUAN1--51" target="IH1UawKQzV-C3lGUAN1--50" edge="1">
          <mxGeometry relative="1" as="geometry" />
        </mxCell>
        <mxCell id="IH1UawKQzV-C3lGUAN1--51" value="스토어 타입, 회원 별 등급 카운트 셀렉트" style="rounded=1;whiteSpace=wrap;html=1;sketch=0;" parent="1" vertex="1">
          <mxGeometry x="1200" y="115" width="240" height="60" as="geometry" />
        </mxCell>
        <mxCell id="IH1UawKQzV-C3lGUAN1--59" style="edgeStyle=orthogonalEdgeStyle;curved=0;rounded=1;sketch=0;orthogonalLoop=1;jettySize=auto;html=1;" parent="1" source="IH1UawKQzV-C3lGUAN1--58" target="IH1UawKQzV-C3lGUAN1--48" edge="1">
          <mxGeometry relative="1" as="geometry">
            <mxPoint x="430" y="25" as="targetPoint" />
          </mxGeometry>
        </mxCell>
        <mxCell id="IH1UawKQzV-C3lGUAN1--61" value="일치" style="edgeLabel;html=1;align=center;verticalAlign=middle;resizable=0;points=[];fontStyle=1;fontSize=13;" parent="IH1UawKQzV-C3lGUAN1--59" vertex="1" connectable="0">
          <mxGeometry x="-0.7695" y="2" relative="1" as="geometry">
            <mxPoint x="-22.06" y="-2" as="offset" />
          </mxGeometry>
        </mxCell>
        <mxCell id="s6dcKbaxDKtYMl7xi46n-22" style="edgeStyle=orthogonalEdgeStyle;rounded=0;orthogonalLoop=1;jettySize=auto;html=1;startArrow=none;startFill=0;endArrow=classic;endFill=1;fontSize=13;entryX=0.5;entryY=1;entryDx=0;entryDy=0;" edge="1" parent="1" source="IH1UawKQzV-C3lGUAN1--58" target="s6dcKbaxDKtYMl7xi46n-18">
          <mxGeometry relative="1" as="geometry">
            <mxPoint x="450" y="720" as="targetPoint" />
            <Array as="points">
              <mxPoint x="1320" y="760" />
              <mxPoint x="27" y="760" />
            </Array>
          </mxGeometry>
        </mxCell>
        <mxCell id="s6dcKbaxDKtYMl7xi46n-23" value="불일치" style="edgeLabel;html=1;align=center;verticalAlign=middle;resizable=0;points=[];fontSize=13;fontStyle=1" vertex="1" connectable="0" parent="s6dcKbaxDKtYMl7xi46n-22">
          <mxGeometry x="-0.9677" relative="1" as="geometry">
            <mxPoint as="offset" />
          </mxGeometry>
        </mxCell>
        <mxCell id="IH1UawKQzV-C3lGUAN1--58" value="카운트 테이블 값, 인서트 완료 행 개수 비교" style="rhombus;whiteSpace=wrap;html=1;rounded=0;sketch=0;fontSize=12;" parent="1" vertex="1">
          <mxGeometry x="1155" y="495" width="330" height="110" as="geometry" />
        </mxCell>
        <mxCell id="IH1UawKQzV-C3lGUAN1--67" value="&lt;span&gt;지정된 날짜&lt;/span&gt;" style="shape=document;whiteSpace=wrap;html=1;boundedLbl=1;rounded=0;sketch=0;" parent="1" vertex="1">
          <mxGeometry x="520" y="-830" width="310" height="70" as="geometry" />
        </mxCell>
        <mxCell id="IH1UawKQzV-C3lGUAN1--69" value="SA_Z_BEERK_RETAIL_STORE" style="shape=datastore;whiteSpace=wrap;html=1;rounded=0;sketch=0;" parent="1" vertex="1">
          <mxGeometry x="1580" y="100" width="240" height="90" as="geometry" />
        </mxCell>
        <mxCell id="IH1UawKQzV-C3lGUAN1--70" value="SA_Z_BEERK_RETAIL_STORE" style="shape=datastore;whiteSpace=wrap;html=1;rounded=0;sketch=0;" parent="1" vertex="1">
          <mxGeometry x="1580" y="-25" width="240" height="90" as="geometry" />
        </mxCell>
        <mxCell id="IH1UawKQzV-C3lGUAN1--71" value="&lt;span&gt;SA_Z_BEERK_SCHEDULER_HIST&lt;/span&gt;" style="shape=datastore;whiteSpace=wrap;html=1;rounded=0;sketch=0;" parent="1" vertex="1">
          <mxGeometry x="1580" y="505" width="240" height="90" as="geometry" />
        </mxCell>
        <mxCell id="IH1UawKQzV-C3lGUAN1--72" value="SA_Z_BEERK_STATS_MON_GRADE" style="shape=datastore;whiteSpace=wrap;html=1;rounded=0;sketch=0;" parent="1" vertex="1">
          <mxGeometry x="1580" y="360" width="240" height="90" as="geometry" />
        </mxCell>
        <mxCell id="IH1UawKQzV-C3lGUAN1--73" value="&lt;span&gt;SA_Z_BEERK_SCHEDULER_HIST&lt;/span&gt;" style="shape=datastore;whiteSpace=wrap;html=1;rounded=0;sketch=0;" parent="1" vertex="1">
          <mxGeometry x="140" y="85" width="240" height="90" as="geometry" />
        </mxCell>
        <mxCell id="IH1UawKQzV-C3lGUAN1--75" value="SA_Z_BEERK_SCHEDULER_HIST" style="shape=datastore;whiteSpace=wrap;html=1;rounded=0;sketch=0;" parent="1" vertex="1">
          <mxGeometry x="555" y="-440" width="240" height="90" as="geometry" />
        </mxCell>
        <mxCell id="IH1UawKQzV-C3lGUAN1--76" value="SA_Z_BEERK_STATS_MON_GRADE" style="shape=datastore;whiteSpace=wrap;html=1;rounded=0;sketch=0;" parent="1" vertex="1">
          <mxGeometry x="1580" y="-160" width="240" height="90" as="geometry" />
        </mxCell>
        <mxCell id="IH1UawKQzV-C3lGUAN1--80" value="" style="endArrow=classic;startArrow=classic;html=1;exitX=0.5;exitY=0;exitDx=0;exitDy=0;entryX=0.5;entryY=1;entryDx=0;entryDy=0;" parent="1" source="IH1UawKQzV-C3lGUAN1--73" target="IH1UawKQzV-C3lGUAN1--20" edge="1">
          <mxGeometry width="50" height="50" relative="1" as="geometry">
            <mxPoint x="860" y="-190" as="sourcePoint" />
            <mxPoint x="910" y="-240" as="targetPoint" />
          </mxGeometry>
        </mxCell>
        <mxCell id="IH1UawKQzV-C3lGUAN1--82" value="" style="endArrow=classic;startArrow=classic;html=1;exitX=0.5;exitY=0;exitDx=0;exitDy=0;entryX=0.5;entryY=1;entryDx=0;entryDy=0;" parent="1" source="IH1UawKQzV-C3lGUAN1--75" target="IH1UawKQzV-C3lGUAN1--4" edge="1">
          <mxGeometry width="50" height="50" relative="1" as="geometry">
            <mxPoint x="500" y="-375" as="sourcePoint" />
            <mxPoint x="500" y="-460" as="targetPoint" />
          </mxGeometry>
        </mxCell>
        <mxCell id="IH1UawKQzV-C3lGUAN1--83" value="" style="endArrow=classic;startArrow=classic;html=1;exitX=0;exitY=0.5;exitDx=0;exitDy=0;entryX=1;entryY=0.5;entryDx=0;entryDy=0;" parent="1" source="IH1UawKQzV-C3lGUAN1--70" target="IH1UawKQzV-C3lGUAN1--17" edge="1">
          <mxGeometry width="50" height="50" relative="1" as="geometry">
            <mxPoint x="1560" y="-395" as="sourcePoint" />
            <mxPoint x="1560" y="-480" as="targetPoint" />
          </mxGeometry>
        </mxCell>
        <mxCell id="IH1UawKQzV-C3lGUAN1--85" value="" style="endArrow=classic;startArrow=classic;html=1;exitX=0;exitY=0.5;exitDx=0;exitDy=0;entryX=1;entryY=0.5;entryDx=0;entryDy=0;" parent="1" source="IH1UawKQzV-C3lGUAN1--71" target="IH1UawKQzV-C3lGUAN1--58" edge="1">
          <mxGeometry width="50" height="50" relative="1" as="geometry">
            <mxPoint x="1660" y="290" as="sourcePoint" />
            <mxPoint x="1520" y="290" as="targetPoint" />
          </mxGeometry>
        </mxCell>
        <mxCell id="IH1UawKQzV-C3lGUAN1--86" value="" style="endArrow=classic;startArrow=classic;html=1;exitX=0;exitY=0.5;exitDx=0;exitDy=0;entryX=1;entryY=0.5;entryDx=0;entryDy=0;" parent="1" edge="1" target="IH1UawKQzV-C3lGUAN1--51" source="IH1UawKQzV-C3lGUAN1--69">
          <mxGeometry width="50" height="50" relative="1" as="geometry">
            <mxPoint x="1580" y="-115.71" as="sourcePoint" />
            <mxPoint x="1440" y="-115.71" as="targetPoint" />
          </mxGeometry>
        </mxCell>
        <mxCell id="IH1UawKQzV-C3lGUAN1--87" value="" style="endArrow=classic;startArrow=classic;html=1;exitX=0;exitY=0.5;exitDx=0;exitDy=0;entryX=1;entryY=0.5;entryDx=0;entryDy=0;" parent="1" source="IH1UawKQzV-C3lGUAN1--72" target="IH1UawKQzV-C3lGUAN1--50" edge="1">
          <mxGeometry width="50" height="50" relative="1" as="geometry">
            <mxPoint x="1580" y="35" as="sourcePoint" />
            <mxPoint x="1440" y="35" as="targetPoint" />
          </mxGeometry>
        </mxCell>
        <mxCell id="IH1UawKQzV-C3lGUAN1--89" value="SA_Z_BEERK_SCHEDULER_HIST" style="shape=datastore;whiteSpace=wrap;html=1;rounded=0;sketch=0;" parent="1" vertex="1">
          <mxGeometry x="800" y="85" width="240" height="90" as="geometry" />
        </mxCell>
        <mxCell id="IH1UawKQzV-C3lGUAN1--90" value="" style="endArrow=classic;startArrow=classic;html=1;exitX=0.5;exitY=0;exitDx=0;exitDy=0;entryX=0.5;entryY=1;entryDx=0;entryDy=0;" parent="1" source="IH1UawKQzV-C3lGUAN1--48" target="IH1UawKQzV-C3lGUAN1--89" edge="1">
          <mxGeometry width="50" height="50" relative="1" as="geometry">
            <mxPoint x="500" y="135" as="sourcePoint" />
            <mxPoint x="480" y="30" as="targetPoint" />
          </mxGeometry>
        </mxCell>
        <mxCell id="IH1UawKQzV-C3lGUAN1--93" value="" style="endArrow=classic;startArrow=classic;html=1;entryX=0.5;entryY=1;entryDx=0;entryDy=0;exitX=0.5;exitY=0;exitDx=0;exitDy=0;" parent="1" source="IH1UawKQzV-C3lGUAN1--89" target="IH1UawKQzV-C3lGUAN1--43" edge="1">
          <mxGeometry width="50" height="50" relative="1" as="geometry">
            <mxPoint x="620" y="-100" as="sourcePoint" />
            <mxPoint x="630" y="10" as="targetPoint" />
          </mxGeometry>
        </mxCell>
        <mxCell id="IH1UawKQzV-C3lGUAN1--95" value="" style="endArrow=classic;startArrow=classic;html=1;entryX=1;entryY=0.5;entryDx=0;entryDy=0;exitX=0;exitY=0.5;exitDx=0;exitDy=0;" parent="1" source="IH1UawKQzV-C3lGUAN1--76" target="IH1UawKQzV-C3lGUAN1--47" edge="1">
          <mxGeometry width="50" height="50" relative="1" as="geometry">
            <mxPoint x="1000" y="-90" as="sourcePoint" />
            <mxPoint x="1000" y="-195" as="targetPoint" />
          </mxGeometry>
        </mxCell>
        <mxCell id="8YkbvmJgyCR-__9vLNpR-2" value="SA_Z_BEERK_SCHEDULER_HIST" style="shape=datastore;whiteSpace=wrap;html=1;rounded=0;sketch=0;" parent="1" vertex="1">
          <mxGeometry x="1580" y="230" width="240" height="90" as="geometry" />
        </mxCell>
        <mxCell id="8YkbvmJgyCR-__9vLNpR-3" value="&lt;span style=&quot;font-size: 13px&quot;&gt;&lt;font style=&quot;font-size: 13px&quot;&gt;카운트 테이블 정보 업데이트&lt;/font&gt;&lt;/span&gt;" style="endArrow=classic;endSize=6;dashed=1;html=1;fontSize=13;entryX=0;entryY=0.5;entryDx=0;entryDy=0;endFill=1;jumpSize=6;fontStyle=1" parent="1" target="8YkbvmJgyCR-__9vLNpR-2" edge="1">
          <mxGeometry width="160" relative="1" as="geometry">
            <mxPoint x="1320" y="275" as="sourcePoint" />
            <mxPoint x="1500" y="109" as="targetPoint" />
            <mxPoint as="offset" />
          </mxGeometry>
        </mxCell>
        <mxCell id="s6dcKbaxDKtYMl7xi46n-6" style="edgeStyle=orthogonalEdgeStyle;rounded=0;orthogonalLoop=1;jettySize=auto;html=1;entryX=0;entryY=0.5;entryDx=0;entryDy=0;fontSize=13;startArrow=classic;startFill=1;" edge="1" parent="1" source="s6dcKbaxDKtYMl7xi46n-1" target="s6dcKbaxDKtYMl7xi46n-5">
          <mxGeometry relative="1" as="geometry" />
        </mxCell>
        <mxCell id="s6dcKbaxDKtYMl7xi46n-7" style="edgeStyle=orthogonalEdgeStyle;rounded=0;orthogonalLoop=1;jettySize=auto;html=1;entryX=0.5;entryY=0;entryDx=0;entryDy=0;startArrow=classic;startFill=1;fontSize=13;" edge="1" parent="1" source="s6dcKbaxDKtYMl7xi46n-1" target="IH1UawKQzV-C3lGUAN1--47">
          <mxGeometry relative="1" as="geometry" />
        </mxCell>
        <mxCell id="s6dcKbaxDKtYMl7xi46n-1" value="기본 정보 인서트" style="rounded=1;whiteSpace=wrap;html=1;sketch=0;" vertex="1" parent="1">
          <mxGeometry x="1200" y="-555" width="240" height="60" as="geometry" />
        </mxCell>
        <mxCell id="s6dcKbaxDKtYMl7xi46n-5" value="SA_Z_BEERK_SCHEDULER_HIST" style="shape=datastore;whiteSpace=wrap;html=1;rounded=0;sketch=0;" vertex="1" parent="1">
          <mxGeometry x="1580" y="-570" width="240" height="90" as="geometry" />
        </mxCell>
        <mxCell id="s6dcKbaxDKtYMl7xi46n-9" style="edgeStyle=orthogonalEdgeStyle;rounded=0;orthogonalLoop=1;jettySize=auto;html=1;entryX=0;entryY=0.5;entryDx=0;entryDy=0;startArrow=none;startFill=0;fontSize=13;exitX=1;exitY=0.5;exitDx=0;exitDy=0;" edge="1" parent="1" source="s6dcKbaxDKtYMl7xi46n-8" target="IH1UawKQzV-C3lGUAN1--43">
          <mxGeometry relative="1" as="geometry">
            <mxPoint x="650" y="40" as="sourcePoint" />
          </mxGeometry>
        </mxCell>
        <mxCell id="s6dcKbaxDKtYMl7xi46n-31" value="현재 &amp;lt;" style="edgeLabel;html=1;align=center;verticalAlign=middle;resizable=0;points=[];fontSize=13;fontStyle=1;labelBorderColor=#000000;" vertex="1" connectable="0" parent="s6dcKbaxDKtYMl7xi46n-9">
          <mxGeometry x="-0.8885" y="-2" relative="1" as="geometry">
            <mxPoint x="23.53" as="offset" />
          </mxGeometry>
        </mxCell>
        <mxCell id="s6dcKbaxDKtYMl7xi46n-10" style="edgeStyle=orthogonalEdgeStyle;rounded=0;orthogonalLoop=1;jettySize=auto;html=1;startArrow=none;startFill=0;fontSize=13;endArrow=classic;endFill=1;entryX=1;entryY=0.5;entryDx=0;entryDy=0;" edge="1" parent="1" source="s6dcKbaxDKtYMl7xi46n-8" target="s6dcKbaxDKtYMl7xi46n-16">
          <mxGeometry relative="1" as="geometry">
            <mxPoint x="20" y="250" as="targetPoint" />
            <Array as="points">
              <mxPoint x="590" y="353" />
            </Array>
          </mxGeometry>
        </mxCell>
        <mxCell id="s6dcKbaxDKtYMl7xi46n-30" value="현재 &amp;gt;=" style="edgeLabel;html=1;align=center;verticalAlign=middle;resizable=0;points=[];fontSize=13;fontStyle=1;labelBorderColor=#000000;" vertex="1" connectable="0" parent="s6dcKbaxDKtYMl7xi46n-10">
          <mxGeometry x="-0.9224" y="-2" relative="1" as="geometry">
            <mxPoint as="offset" />
          </mxGeometry>
        </mxCell>
        <mxCell id="s6dcKbaxDKtYMl7xi46n-8" value="현재 카운트를 설정된 카운트와 비교" style="rhombus;whiteSpace=wrap;html=1;rounded=0;sketch=0;" vertex="1" parent="1">
          <mxGeometry x="470" y="-170" width="240" height="110" as="geometry" />
        </mxCell>
        <mxCell id="s6dcKbaxDKtYMl7xi46n-13" value="&lt;span style=&quot;font-size: 12px&quot;&gt;프로퍼티로 날짜 지정&lt;/span&gt;" style="shape=hexagon;perimeter=hexagonPerimeter2;whiteSpace=wrap;html=1;fixedSize=1;fontSize=13;" vertex="1" parent="1">
          <mxGeometry x="930" y="-840" width="225" height="80" as="geometry" />
        </mxCell>
        <mxCell id="s6dcKbaxDKtYMl7xi46n-15" style="edgeStyle=orthogonalEdgeStyle;rounded=0;orthogonalLoop=1;jettySize=auto;html=1;entryX=0.5;entryY=0;entryDx=0;entryDy=0;dashed=1;startArrow=none;startFill=0;endArrow=classic;endFill=1;fontSize=13;" edge="1" parent="1" source="s6dcKbaxDKtYMl7xi46n-14" target="s6dcKbaxDKtYMl7xi46n-8">
          <mxGeometry relative="1" as="geometry" />
        </mxCell>
        <mxCell id="s6dcKbaxDKtYMl7xi46n-14" value="&lt;span style=&quot;font-size: 12px&quot;&gt;설정된 카운트 횟수 제한&lt;/span&gt;" style="shape=hexagon;perimeter=hexagonPerimeter2;whiteSpace=wrap;html=1;fixedSize=1;fontSize=13;" vertex="1" parent="1">
          <mxGeometry x="930" y="-300" width="225" height="80" as="geometry" />
        </mxCell>
        <mxCell id="s6dcKbaxDKtYMl7xi46n-26" style="edgeStyle=orthogonalEdgeStyle;rounded=0;orthogonalLoop=1;jettySize=auto;html=1;entryX=0.5;entryY=1;entryDx=0;entryDy=0;startArrow=none;startFill=0;endArrow=classic;endFill=1;fontSize=13;" edge="1" parent="1" source="s6dcKbaxDKtYMl7xi46n-16" target="s6dcKbaxDKtYMl7xi46n-17">
          <mxGeometry relative="1" as="geometry" />
        </mxCell>
        <mxCell id="s6dcKbaxDKtYMl7xi46n-16" value="" style="ellipse;whiteSpace=wrap;html=1;aspect=fixed;fontSize=13;" vertex="1" parent="1">
          <mxGeometry x="20" y="345" width="15" height="15" as="geometry" />
        </mxCell>
        <mxCell id="s6dcKbaxDKtYMl7xi46n-29" style="edgeStyle=orthogonalEdgeStyle;rounded=0;orthogonalLoop=1;jettySize=auto;html=1;startArrow=none;startFill=0;endArrow=classic;endFill=1;fontSize=13;entryX=0;entryY=0.5;entryDx=0;entryDy=0;" edge="1" parent="1" source="s6dcKbaxDKtYMl7xi46n-17" target="IH1UawKQzV-C3lGUAN1--67">
          <mxGeometry relative="1" as="geometry">
            <mxPoint x="27.5" y="-590" as="targetPoint" />
            <Array as="points">
              <mxPoint x="27" y="-795" />
            </Array>
          </mxGeometry>
        </mxCell>
        <mxCell id="s6dcKbaxDKtYMl7xi46n-17" value="" style="ellipse;whiteSpace=wrap;html=1;aspect=fixed;fontSize=13;" vertex="1" parent="1">
          <mxGeometry x="20" y="-122.5" width="15" height="15" as="geometry" />
        </mxCell>
        <mxCell id="s6dcKbaxDKtYMl7xi46n-25" style="edgeStyle=orthogonalEdgeStyle;rounded=0;orthogonalLoop=1;jettySize=auto;html=1;entryX=0.5;entryY=1;entryDx=0;entryDy=0;startArrow=none;startFill=0;endArrow=classic;endFill=1;fontSize=13;" edge="1" parent="1" source="s6dcKbaxDKtYMl7xi46n-18" target="s6dcKbaxDKtYMl7xi46n-16">
          <mxGeometry relative="1" as="geometry" />
        </mxCell>
        <mxCell id="s6dcKbaxDKtYMl7xi46n-18" value="" style="ellipse;whiteSpace=wrap;html=1;aspect=fixed;fontSize=13;" vertex="1" parent="1">
          <mxGeometry x="20" y="542.5" width="15" height="15" as="geometry" />
        </mxCell>
      </root>
    </mxGraphModel>
  </diagram>
</mxfile>
